<svg xmlns="http://www.w3.org/2000/svg" viewBox="0 0 529.05 530.23"><defs><style>.cls-1,.cls-2{fill:#fff;stroke:#000;}.cls-1{stroke-width:27px;}.cls-2{stroke-width:31px;}</style></defs><g id="Layer_2" data-name="Layer 2"><g id="Layer_1-2" data-name="Layer 1"><path class="cls-1" d="M166.08,73.58a103.87,103.87,0,0,1,34.65-15,11.93,11.93,0,0,0,9.38-11.89c-.1-4.09.15-8.36.42-12.52a22.16,22.16,0,0,1,22.1-20.7h75.82c5.16,0,8.85,7.18,10.12,12.18a43.54,43.54,0,0,1,1.35,13.89c-.69,9,3.81,22.75,12.33,25.8,14.23,5.09,26.38,9.21,33.24,10.93,5,1.24,9.71.31,12.78-3.49,3.36-4.16,17.27-15.12,23.09-19.05,4.32-2.92,5.45,1.12,9.29,4.64C453,97.31,470.52,114.78,473,117.31c.27.27,4.4,7,4.58,7.29,1.19,2.32-7.69,12.62-19.32,23.71a15.27,15.27,0,0,0-1.93,20c9,12.36,10.9,26.31,16.27,30.78,4.64,3.87,2.84,6.71,5,8.16h23.65c6.26,0,14.3,5.19,14.3,11.45l-1,79.74c0,.9-.44,2.32,0,3.1,3.42,6.1-5.65,7.61-42.73,12.39-4.57.59-10.49,5.86-12.38,10.06-5.35,11.85-3.67,32.68-7.39,42a11,11,0,0,0,3.21,12.68l15.76,13.66a10.92,10.92,0,0,1,2.51,3c2.34,4.31,2.94,10.63.17,14.21-16.06,20.78-53.41,57.68-65.8,66.19-4,2.75-9.47-1.82-10.07-2.32-7.19-6-13.78-11.5-18.73-15.64a11.84,11.84,0,0,0-14.78-.4c-7.38,5.62-20.56,12.2-32.68,12.91a11.9,11.9,0,0,0-11.23,11.15c-.43,7.21-.65,15.33-.76,21.69-.1,6.18-5.44,13.65-11.62,13.65H222.13s-14.9.4-12.54-34.76a12,12,0,0,0-8.3-12.23c-11.4-3.59-27-9.3-35.19-14.07-4.49-2.62-6.54-5.63-10.16-1.91A182.93,182.93,0,0,1,131.84,474a11.33,11.33,0,0,1-12.45-.1c-6.19-4.14-16.92-13.41-34-34.12a22.57,22.57,0,0,0-2.29-2.4c-12.33-11.13-34.51-29.16-27.75-37.85,4.43-5.7,12.25-14.78,17.39-20.67,3-3.5,11.64-8.09,9.74-12.33-2.33-5.22-14.06-37.48-17-44.9-5.56-13.91-17.65,1-32.48-1.11-8.46-1.2-15-5.3-18.92-18a11.29,11.29,0,0,1-.51-3.46V225.24c.13-14.74,12.69-15.64,27.43-15.57,9.88,0,17.88.66,16.56-.62-.93-.9,16.49-49,19.09-51.16,5-4.07-11.86-11.68-19-20.52-5.92-7.36-2.87-19.92,4.07-26.32l54-49.78a15.58,15.58,0,0,1,21.43-.86L151,72.57A12.42,12.42,0,0,0,166.08,73.58Z"/><circle class="cls-2" cx="264.77" cy="265.11" r="137.61"/></g></g></svg>